<?xml version="1.0" encoding="utf-8"?>
<!-- Generator: Adobe Illustrator 18.1.1, SVG Export Plug-In . SVG Version: 6.00 Build 0)  -->
<!DOCTYPE svg PUBLIC "-//W3C//DTD SVG 1.1//EN" "http://www.w3.org/Graphics/SVG/1.1/DTD/svg11.dtd">
<svg version="1.1" xmlns="http://www.w3.org/2000/svg" xmlns:xlink="http://www.w3.org/1999/xlink" x="0px" y="0px"
	 viewBox="0 0 200 200" enable-background="new 0 0 200 200" xml:space="preserve">
<g id="Layer_1">
</g>
<g id="Layer_2">
	<g>
		<path stroke="#FFFFFF" stroke-width="10" stroke-miterlimit="10" d="M62.6,106.2H50.8H39.7H27.8c-12.3,0-22.4,12.4-22.4,27.6v11.8
			c0,3.4,2.2,6.2,5,6.2h29.3h11.1H80c2.7,0,5-2.8,5-6.2v-11.8C85,118.6,74.9,106.2,62.6,106.2z"/>
		<path stroke="#FFFFFF" stroke-width="10" stroke-linecap="round" stroke-miterlimit="10" d="M68.8,82c0,13-10.6,30.3-23.6,30.3
			S21.6,95,21.6,82s10.6-23.6,23.6-23.6S68.8,69,68.8,82z"/>
		<path stroke="#FFFFFF" stroke-width="10" stroke-miterlimit="10" d="M172.2,106.2h-11.9h-11.1h-11.9c-12.3,0-22.4,12.4-22.4,27.6
			v11.8c0,3.4,2.2,6.2,5,6.2h29.3h11.1h29.3c2.7,0,5-2.8,5-6.2v-11.8C194.6,118.6,184.5,106.2,172.2,106.2z"/>
		<path stroke="#FFFFFF" stroke-width="10" stroke-linecap="round" stroke-miterlimit="10" d="M178.4,82c0,13-10.6,30.3-23.6,30.3
			c-13,0-23.6-17.2-23.6-30.3s10.6-23.6,23.6-23.6C167.8,58.4,178.4,69,178.4,82z"/>
		<path stroke="#FFFFFF" stroke-width="10" stroke-miterlimit="10" d="M122.6,99.1h-15.4H92.8H77.4c-15.9,0-29,17.4-29,38.6v16.4
			c0,4.7,2.9,8.6,6.5,8.6h37.9h14.4h37.9c3.6,0,6.5-3.9,6.5-8.6v-16.4C151.5,116.5,138.5,99.1,122.6,99.1z"/>
		<path stroke="#FFFFFF" stroke-width="10" stroke-linecap="round" stroke-miterlimit="10" d="M130.5,67.8
			c0,16.9-13.7,39.2-30.5,39.2S69.5,84.7,69.5,67.8S83.1,37.3,100,37.3S130.5,50.9,130.5,67.8z"/>
	</g>
</g>
</svg>
