<?xml version="1.0" encoding="utf-8"?>
<!-- Generator: Adobe Illustrator 18.1.1, SVG Export Plug-In . SVG Version: 6.00 Build 0)  -->
<!DOCTYPE svg PUBLIC "-//W3C//DTD SVG 1.1//EN" "http://www.w3.org/Graphics/SVG/1.1/DTD/svg11.dtd">
<svg version="1.1" xmlns="http://www.w3.org/2000/svg" xmlns:xlink="http://www.w3.org/1999/xlink" x="0px" y="0px"
	 viewBox="0 0 200 200" enable-background="new 0 0 200 200" xml:space="preserve">
<g id="Layer_1">
	<g>
		<g>
			<g>
				<path stroke="#FFFFFF" stroke-width="10" stroke-linecap="round" stroke-miterlimit="10" d="M100,119.3H19V68.7
					c0-7.2,5.8-13,13-13h68V119.3z"/>
				<path stroke="#FFFFFF" stroke-width="10" stroke-linecap="round" stroke-miterlimit="10" d="M180.9,119.3H100c0,0-0.1,0-0.1-0.1
					V55.7c0,0,0-0.1,0.1-0.1h67.8c7.2,0,13.1,5.9,13.1,13.1L180.9,119.3C181,119.2,181,119.3,180.9,119.3z"/>
			</g>
			<g>
				<path stroke="#FFFFFF" stroke-width="10" stroke-linecap="round" stroke-miterlimit="10" d="M100,182.7H32.1
					c-7.2,0-13-5.8-13-13v-50.6h81V182.7z"/>
				<path stroke="#FFFFFF" stroke-width="10" stroke-linecap="round" stroke-miterlimit="10" d="M168,182.7h-68v-63.6h81v50.6
					C181,176.9,175.1,182.7,168,182.7z"/>
			</g>
		</g>
		<path fill="#FFFFFF" stroke="#000000" stroke-width="10" stroke-miterlimit="10" d="M90,24.4c6.5,8.1,10.2,27.2,2.9,33
			c-7,5.6-25.1-2-31.5-10.1S56.1,27.5,64,21.2S83.5,16.3,90,24.4z"/>
		<path fill="#FFFFFF" stroke="#000000" stroke-width="10" stroke-miterlimit="10" d="M109.6,24.4c-6.5,8.1-10.2,27.2-2.9,33
			c7,5.6,25.1-2,31.5-10.1c6.5-8.1,5.3-19.8-2.6-26.1C127.7,14.9,116,16.3,109.6,24.4z"/>
	</g>
</g>
<g id="Layer_2">
</g>
</svg>
