<?xml version="1.0" encoding="utf-8"?>
<!-- Generator: Adobe Illustrator 18.1.1, SVG Export Plug-In . SVG Version: 6.00 Build 0)  -->
<!DOCTYPE svg PUBLIC "-//W3C//DTD SVG 1.1//EN" "http://www.w3.org/Graphics/SVG/1.1/DTD/svg11.dtd">
<svg version="1.1" xmlns="http://www.w3.org/2000/svg" xmlns:xlink="http://www.w3.org/1999/xlink" x="0px" y="0px"
	 viewBox="0 0 200 200" enable-background="new 0 0 200 200" xml:space="preserve">
<g id="Layer_1">
	<g>
		<g>
			<path d="M186.1,102.7c0,18.6-16.2,49.5-32.9,49.5c-16.2,0-32.9-30.9-32.9-49.5S135,69,153.2,69S186.1,84.1,186.1,102.7z"/>
			<path d="M156.4,162.8l-1.8-12.4c0.3-1,1.5-1.5,2.4-1l9.6,9.2"/>
			<g>
				<path d="M79.7,102.7c0,18.6-16.2,49.5-32.9,49.5c-16.2,0-32.9-30.9-32.9-49.5S28.6,69,46.8,69S79.7,84.1,79.7,102.7z"/>
				<g>
					<path fill="none" stroke="#000000" stroke-width="10" stroke-linecap="round" stroke-miterlimit="10" d="M152.8,149.2
						l-8.9,15.1c-1.2,2-2.7,3.9-4.6,5.5l-17.6,15.6"/>
					<path fill="none" stroke="#000000" stroke-width="10" stroke-linecap="round" stroke-miterlimit="10" d="M47.2,149.2l8.9,15.1
						c1.2,2,2.7,3.9,4.6,5.5l17.6,15.6"/>
				</g>
				<path d="M44,164l1.8-12.4c-0.3-1-1.5-1.5-2.4-1l-9.6,9.2"/>
			</g>
		</g>
		<path stroke="#FFFFFF" stroke-width="10" stroke-miterlimit="10" d="M148.5,63c0,27.4-23.8,73.1-48.5,73.1
			c-23.9,0-48.5-45.6-48.5-73.1S73.2,13.4,100,13.4S148.5,35.6,148.5,63z"/>
		
			<line fill="none" stroke="#000000" stroke-width="10" stroke-linecap="round" stroke-miterlimit="10" x1="100" y1="130.8" x2="100" y2="186.6"/>
		<path d="M105.8,150l-2.7-18.6c0.5-1.5,2.2-2.2,3.6-1.4l14.4,13.8"/>
	</g>
</g>
<g id="Layer_2">
</g>
</svg>
